/* XPM */
static char *_a9d997df08e42b9ce38b04ccba3ef70UvqxyX22AkImZMZM[] = {
/* columns rows colors chars-per-pixel */
"40 40 75 1 ",
"  c black",
". c #6E0707",
"X c #A10A0A",
"o c #C70707",
"O c red",
"+ c #CBB27B",
"@ c #D5B67D",
"# c #D4B87F",
"$ c #DAB97E",
"% c #E1BE7F",
"& c #D3B780",
"* c #D6B980",
"= c #DCBD83",
"- c #E0BF84",
"; c #D5C086",
": c #DEC185",
"> c #D6C088",
", c #DEC48A",
"< c #DCCB8F",
"1 c #E3C386",
"2 c #EAC586",
"3 c #EDC987",
"4 c #E4C689",
"5 c #E8C789",
"6 c #E5C98C",
"7 c #EBCC8D",
"8 c #F1CE8C",
"9 c #EED08F",
"0 c #F0D18F",
"q c #F2D18F",
"w c #E2CB90",
"e c #E5CD90",
"r c #E7CF90",
"t c #EBCC90",
"y c #E8CE91",
"u c #EACF91",
"i c #E9CF93",
"p c #ECCE90",
"a c #E6D296",
"s c #E9D092",
"d c #EAD092",
"f c #EDD092",
"g c #ECD293",
"h c #ECD394",
"j c #EED394",
"k c #ECD595",
"l c #EDD596",
"z c #EED496",
"x c #EFD699",
"c c #EFD99C",
"v c #EEDC9C",
"b c #F2D192",
"n c #F1D292",
"m c #F3D392",
"M c #F7D391",
"N c #F1D493",
"B c #F5D492",
"V c #F0D396",
"C c #F0D595",
"Z c #F3D494",
"A c #F7D795",
"S c #F9D694",
"D c #F7D894",
"F c #F4D897",
"G c #F6D896",
"H c #F3D798",
"J c #F1D999",
"K c #F3DA9A",
"L c #F4DA9A",
"P c #F6DC9D",
"I c #F9DD9D",
"U c #F0E09E",
"Y c #F8E09F",
"T c #F4E4A3",
"R c gray97",
/* pixels */
"fpd77557SBp5=,2xne57cA76u76657ku707kB110",
"0n6h7d17nABN7:197h766u77ff617fVV7U00515k",
"BG6:1w1kJnLSSCn57C776,7C7f57ppnnk51245GN",
"nf6$:=1kIC7777n51pCSApdkn7774:2CG7,:1299",
"p5u37777Lk1:=@=165defkN77=:41==h0Nkf0626",
",=e36777Cn4;:==4785;:f7fu266,&$h50K7Bd57",
"61779u6fnN6    6672:67    VG5,@=7e65f6d9",
"n87fCC67nL .XoO fk727 OOOO pn5777f66575N",
"5f549N96f .XXoOO 9L5 OOOROO 55f78n753777",
"-e641705 .XXooOOO G OOOOOROO 1:177e28C06",
"77h62705 .XooOOOOO OOOOOOOOO n1:d7fn82f5",
"2nNp073e .XoOOOOOOOOOOOOOOOO 7766>2n77f7",
"f7Bf61$6 .XoOOOOOOOOOOOOOOOO ,fG5#$5fk0B",
"GB0f71<4 .XoOOOOOOOOOOOOOOOO 77k75:6750F",
"CC579576 ..XooOOOOOOOOOOOOOO 44679576%9G",
"NLf797fk7 ..XooOOOOOOOOOOOO <>:e7N07627N",
"SHHV<==pC7 ..XooOOOOOOOOOO fJk51577247fN",
"767V1++17SD ..XooOOOOOOOO 7GTn7:67,1df14",
"6e6pu=614pSC ..XooOOOOOO >198N71476166,,",
"TCu645hp56kh5 ..XooOOOO d2527n765C7u7d60",
"JH87u76667Cd78 ..XXooo 76257CD74:,2VNe77",
"6u67ff615fCC7Un ..XXX 6d7u17MDBN5::f7f76",
"5,7h7p57p7mnf511 ... G5=161kJCDSGNd26D77",
"Auffpu775:5CD3<,1   nk6=>:1kPS777fn55fNN",
"fkn77=:4:==k7nkn051eu7d37767Lk11=@=1556d",
",h7pf2664*$k59L7B7774=6757u7Ch<=-==,785;",
"585df5CL5:@:7d64f6u76175n77pVZ4<8n766521",
"67kC6:2p97577V44777CN77dCC67bJu17f77fk76",
"6969521452977N7237755u54fVp57f616d1167G5",
"9669613761:1f7w28nn7:e64:787p5=561,6=$un",
"766ff657kN1,f7dn92d577h75787757795f01#=n",
"1u77776767751,2095N72nn7075u7555796205=1",
"=2Cf54pS71uL5@=6ff0GfnBf6,$65877nP6=1d::",
"67D0nhuCAuex75=5760DDq0f726<5unBnII04>u6",
"f2e324<2w<14775p6%9GCn5795664,171-a8769k",
"C7w$:@:1<=,77n87626nCLf7979975@<==<=25$7",
"776$666dJh55777557fCDLJH1;=7k75f77k111#4",
"=6f6667GIVp=671=df16767V4++47BDnnn954591",
"=6n62;108C71,7616f:,6e676:6157CC7776130n",
"fff672557n765h7u7e57TA7666hp66kn53JJk83A"
};
