/* XPM */
static char *_291a075cdeb440bda1ba07cdfd68b92rSD2LqLFayRlrDQr[] = {
/* columns rows colors chars-per-pixel */
"40 40 41 1 ",
"  c black",
". c #4A2A1B",
"X c #CBB27B",
"o c #D5B67D",
"O c #D5B97F",
"+ c #DBBA7E",
"@ c #E1BE7F",
"# c #D3B780",
"$ c #D6B980",
"% c #DCBD83",
"& c #E0BE83",
"* c #D5C086",
"= c #DEC185",
"- c #D6C088",
"; c #DEC48A",
": c #DCCB8F",
"> c #E3C385",
", c #E9C586",
"< c #EDC887",
"1 c #E3C689",
"2 c #E8C789",
"3 c #E5C98C",
"4 c #EBCC8D",
"5 c #F1CE8C",
"6 c #EED08F",
"7 c #F2D18F",
"8 c #E5CD90",
"9 c #EBCE90",
"0 c #E6D296",
"q c #EDD293",
"w c #EFD699",
"e c #EFDA9B",
"r c #F2D493",
"t c #F9D694",
"y c #F5D896",
"u c #F8DA96",
"i c #F3D798",
"p c #F4DA9A",
"a c #F9DD9D",
"s c #F0E09E",
"d c #F4E4A3",
/* pixels */
"q9044,24rt9>&;1rr844eu93948324i94<4qr1,6",
"4r4q49>4ryt74=244q433844q93>39rr4s7r4@3q",
"ty3=>:>qprptyrr13y443=4r492499r7q41>14rr",
"rq3o%=1qpi44497219rrtq0q79441>>qt4;==<46",
"449<4434pw>-%o%>2488qqr49=%1&%%047qr73>4",
";%344494qr1%   1451%;q549   1#$w4qe4t443",
"3>44494q7r8; . 3241=44309 . 4%o&49:49399",
"t44qrq34rp8> . 49q4244rq4 . 7<394q>1442r",
"1q126r62073= .            . 41745r42<444",
"&831=47441&3 . .......... . 2==>448,5r72",
"44041574444< . .......... . qr>=05995>04",
"1rr446,64<31 .            . 34432-,r4474",
"65y04>%;4444 . %>8==%,tq3 . 4;qy2O%3r07r",
"yr4q4>3;14rr . 71%9834rrr . y49q42=2447y",
"rr444,931>>9 . 5434rq18<, . 8;1344443@6y",
"rp44646q41o; . %>4%9r38+= . :->847543>4r",
"piir2-%9r439 . >>>O>463%1 . pq314441244r",
"419r>XX;4rur .            . ar0%24=>0q13",
"38298%1>14yr . .......... . 4r5>=43>29==",
"dr9333r933qq . .......... . 46424w44483q",
"wi53991144r9 .            . tr6;%;1pr344",
"3944978>36rq . r4>3q4r404 . ttt74%>44q43",
"3;4q4q2499rr . >1<rrty3%1 . pqyturq,4r44",
"y99q94491=2q . ==,66rq3+% . py4446711qqt",
"9qr44&=2>%%0 . 7r3>3449<4 . pq1=%o%>2440",
"=q549>331#oq . 47444;%8<4 . rq3-&%%;443*",
"852044qp4=o= . 4739q3>346 . rr3;5742341=",
"44qw3>>q4444 . 2483rr54qr . rp8=4q44qq<,",
"464921@33,64 .            . qq3=30>=16t4",
"4;843><53>%> . .......... . 42&13113%O44",
"443q9442qr>= . .......... . 42446,q7,O=r",
">84443443444 .            . 44226631<3%1",
"%2rq219r4;9y . 4q07t65y02 . 44445a3%>4=-",
"34y7rq9yy49w . 1447ytr4q4 . 29rrraa71*44",
"r>8<2;2>8;18 . 93&qrrq449 . 1=>81=05437q",
"r38+=o=>:%=8 . 43>4rrp646 . 42o:%%;%14+4",
"443%2140iq21   2154rprpr2   r44445q1=@O1",
"%393334ydr9%24>%0q21484r1XX14ryrqr44146=",
"%3r81=>55r4>143134==38394%1>14ry,043167r",
"qq9241,144932q489837dr4413w933qq2<ywq<<t"
};
