/* XPM */
static char *_dc38c5057e04b5dc752cf4b231be761GcYM2KoKpEJpVl8I[] = {
/* columns rows colors chars-per-pixel */
"40 40 71 1 ",
"  c black",
". c gray3",
"X c #FFF200",
"o c #CBB27B",
"O c #D5B67D",
"+ c #D4B87F",
"@ c #DAB97E",
"# c #E1BE7F",
"$ c #D3B780",
"% c #D6B980",
"& c #DCBD83",
"* c #E0BE83",
"= c #D5C086",
"- c #DEC185",
"; c #D6C088",
": c #DEC48A",
"> c #DCCB8F",
", c #E3C385",
"< c #E9C586",
"1 c #EDC887",
"2 c #E4C689",
"3 c #E8C789",
"4 c #E5C98C",
"5 c #EBCC8D",
"6 c #F0CE8C",
"7 c #F1CE8C",
"8 c #EED08F",
"9 c #EFD08F",
"0 c #F0D08F",
"q c #F2D18F",
"w c #E2CB90",
"e c #E5CD90",
"r c #E9CD90",
"t c #EBCC90",
"y c #E9CE90",
"u c #E8CF93",
"i c #ECCE90",
"p c #E6D296",
"a c #E9D092",
"s c #E9D193",
"d c #EDD092",
"f c #EED493",
"g c #ECD394",
"h c #EED394",
"j c #EDD296",
"k c #EAD496",
"l c #EDD597",
"z c #EFD699",
"x c #EFD999",
"c c #EFD99C",
"v c #F1D191",
"b c #F1D292",
"n c #F7D391",
"m c #F1D493",
"M c #F5D492",
"N c #F3D494",
"B c #F2D797",
"V c #F4D795",
"C c #F9D694",
"Z c #F7D894",
"A c #F4D897",
"S c #F6D896",
"D c #F3D798",
"F c #F3DA9A",
"G c #F6DA98",
"H c #F6DC9D",
"J c #F9DD9D",
"K c #F0E09E",
"L c #F8E09F",
"P c #F4E4A3",
"I c gray96",
/* pixels */
"dis55226NMd2*22Vby45cN64s54435gy515fN,,d",
"0b5g5s,5MVMb4-,65d544e55dy4,5dNV5K0M5,<f",
"MS4-,4,dcNGCSmb24S555:5N5g35tiNbf5,,,3Sm",
"bd4@-&:fHN5558b3,iSMSyyzb5552,,lS5:-,35d",
"55y15555Ff2;&O&,455sdfb55&&2,&&g5bbb04,5",
"2&4545y5Vd2&&&&:552=-g5ii,y5:$@g5bc5n555",
"4,55dy4dbN4:5n55     54si5bV5&O&5y>5d4yd",
"m55dmN45bGy25d  XXXXX  Vr&2i555t5g,2554b",
"2y228004dd4-4 XXXXXXXXX 22*2535i6bi21655",
",y52-88582-< XXXXXXXXXXX ,1522&,i5e36b64",
"55g5<5055555 XXXXXXXXXXX 515ib,,y5ib6,b1",
"2db550<s514               545555,:2055b5",
"b6Sd4,&:555 X  II    II X 5N5:uS3+@5dd0m",
"VM5d5,4:25n X   I X   I X iMG55z54-4550F",
"VV2585542,, XX   XXX   XX 42e:2456555#8V",
"bFd5855d52+ XXXXXXXXXXXXX -:>;-e50854,5m",
"NDDV2&&im545 XX.XXXXXXXX 25ycd22555225dm",
"5y5N:oo,5mSb XXX....XXXX 55GLm5,25:,db,4",
"4y45t&2:25mV5 XXXXXXXXX 2-,66m5,-52245--",
"PNi424Ni44Vb23  XXXXX  453225b545S545e4d",
"zD55yy4455fy565g     ss55235VMd,&:,FNe55",
"2u55ib4,58NV5K6b5, d6b5y55,5nVMm5-,i5d53",
"5:5z5g55y5bbf5,,23 MMG5-,4,sGbSCCmb25V55",
"Nysii5352,2zS5:--3 dbf4O&-2zHV5585b32ymM",
"5zV55&-2,&&g5dz0b5 5y5y15555Fs,&&+&,455s",
":f55s,452$@s5           4dy5Vf4;&&@2562=",
"255s65VN5-O-5yw5d4 i4,55884dbN4>5n54452-",
"55dN4&2s51555f2255 gV65umd45bDi:5b55id53",
"405s22#452d55d5316 52b22gV52ii4,4s,-28M5",
"82w55,154,&,d5535b 5&552*565i2&24,24&@y6",
"555g5255fd,-85db6, 555g52665555583d62+&b",
",e55555535552:2b55 52gbi65<55152504255&,",
"&2Md42yV52yV2$%5b M d0Vd4,@456556H4&,e-:",
"45S0bf5VV5yz53,45 b Vn5g52::2ynnbJJb2=y4",
"d,e53,42w:24551y #8S V25s1s42:,5,,p5558S",
"V54@-O-->&:yib65 ,5b Gd585b552O>&&>&,5@5",
"553%425sVg2,555 45dmS DV2=&5N55556f,,,+,",
"%4d4455SPVy,25: di225 5V2oo:5VSbbbs221d,",
",5d52-,57n5,2  ,4y-:4y  5&2225mS3y63-10b",
"ibd45223ii542g5y5e2iPV5434fi54fs21Scz51S"
};
