/* XPM */
static char *_aeecdaf47264712d974467738e6de57iWtbvZZUTylOUcBi[] = {
/* columns rows colors chars-per-pixel */
"40 40 94 2 ",
"   c black",
".  c #7C3838",
"X  c #7D3939",
"o  c #7E3939",
"O  c #585353",
"+  c #595454",
"@  c #595555",
"#  c #5F5A5A",
"$  c #605B5B",
"%  c #605C5C",
"&  c #666161",
"*  c #6A6666",
"=  c #6C6767",
"-  c #706B6B",
";  c #746E6E",
":  c #727070",
">  c #767171",
",  c #797373",
"<  c #787575",
"1  c #7A7474",
"2  c #797676",
"3  c #7F7979",
"4  c #814040",
"5  c #824141",
"6  c #834141",
"7  c #834646",
"8  c #8A4D4D",
"9  c #904141",
"0  c #944848",
"q  c #954E4E",
"w  c #865050",
"e  c #895151",
"r  c #8C5D5D",
"t  c #8E5E5E",
"y  c #965050",
"u  c #9B5454",
"i  c #9C5D5D",
"p  c #A24949",
"a  c #A44A4A",
"s  c #AD4E4E",
"d  c #A75151",
"f  c #A85858",
"g  c #AD5C5C",
"h  c #B55252",
"j  c #B05555",
"k  c #B35F5F",
"l  c #B85959",
"z  c #976060",
"x  c #807A7A",
"c  c #807C7C",
"v  c #827C7C",
"b  c #857F7F",
"n  c #A66666",
"m  c #A26B6B",
"M  c #A26C6C",
"N  c #AF6868",
"B  c #B56060",
"V  c #BC6363",
"C  c #BC6464",
"Z  c #B66D6D",
"A  c #BB6F6F",
"S  c #A47373",
"D  c #BD7070",
"F  c #B17979",
"G  c #B67979",
"H  c #BF7F7F",
"J  c #C47373",
"K  c #C47474",
"L  c #858181",
"P  c #868282",
"I  c #888282",
"U  c #888585",
"Y  c #8B8686",
"T  c #8D8787",
"R  c #8B8888",
"E  c #8D8888",
"W  c #908A8A",
"Q  c #928E8E",
"!  c #958F8F",
"~  c #949191",
"^  c #959191",
"/  c #999393",
"(  c #999595",
")  c #9E9B9B",
"_  c #9F9B9B",
"`  c #A29C9C",
"'  c #A6A2A2",
"]  c #A7A3A3",
"[  c #C28080",
"{  c #C38282",
"}  c #C58282",
"|  c #CB8484",
" . c #CB8686",
".. c #CC8888",
/* pixels */
"S F H } | | | | |   R Q _ ` ` ] ` ] `   S F J [ | | | | |   Y ! ` ` ` ] ` ] ` ] ",
"z n Z D J J J J |   2 L W ! / / ( / ]   i Z Z A K K J J |   2 b W ! / / / / / ] ",
"8 u g B V V V J |   * , x I T T T ! `   0 a k k C C C J  .  * : x I T T T T / ] ",
"5 0 d j l l V J |   # = , x b b T ` ]   @ 0 s j l l V J |   $ = , x b b b T / ` ",
"X 9 a s l l V J  .  @ & ; , b b T / ]   X 9 a s l l C K |   @ & ; 2 x b b T ( ` ",
"X 9 a s s j B D  .  @ & ; 2 , x b ! `   X 9 a s s j B D }   @ & ; , , 1 x I ^ ` ",
"X 9 a a a d g Z K   @ & ; ; ; , v W `   o 9 a a a d g Z K   O & ; ; ; ; , b E _ ",
"X 9 9 9 9 0 u n F   O & & & & = , b W   o 9 9 9 9 0 u M F   @ & & & & & = ; L ^ ",
"X X X X X 5 8 z S   @ O @ O @ $ * 2 R   X X X X X 5 8 z S   @ @ @ @ @ @ % * 2 R ",
"                                                                                ",
"r M G ..  R ^ _ _ ' ' ' ' '   r M G [ | | ..| ..  : L ^ ` ] ' ] ' ]   r M F K ..",
"w i N ..  2 L E Q ^ / / / ]   e i N D K K K K |   * 1 Y Q ( ( ( ( '   w i Z D ..",
"X 9 N ..  = : x L E E E / ]   7 y f B C C C K |   # - 3 L T T T ( ]   7 q f D ..",
"X 9 N ..  # * 2 x L b T ^ '   6 0 d j l l C K |   # * , 3 L b T ( '   5 0 f D ..",
". 9 N |   @ & ; , b b T ( '   X 9 a a l l C K |   @ & ; , b b T ( '   X 0 f A | ",
". 9 N |   @ & : , 2 x L Q _   X 9 a s h j k D [   O & ; , 2 3 L Q _   X 0 f D [ ",
"X 9 N G   @ & ; ; : 1 x T `   o 9 0 a a d f Z H   @ & ; ; ; : 1 T ^   X 0 f N G ",
"X 9 i m   @ & & & & = : 3 /   X 9 9 9 9 0 y i z   O & & & & = ; 1 I   X 0 q i M ",
". . e r   @ @ @ @ @ @ = 2 R   X X X o X 7 7 e r   O O O @ @ $ $ = :   X 4 7 w r ",
"                                                                                ",
"S F H } | | | |  .  T ^ _ ` ` ` ] ` `   S G J | | | | | |   Y ! ` ` ` ` ` ] ] ` ",
"z n Z D J J J J |   , b W ! ( / / ( ]   z n A D J J J J |   2 b W ! / / / / / ] ",
"8 u g B V V V J  .  = : x I T T T / ]   8 u k k V V V J  .  * : b I T T T T / ` ",
"5 0 d j l l V J |   $ = , x b b T / `   6 0 d j l l V J |   $ = , x b b b T / ' ",
"X 9 a s l l V J  .  @ & : 1 b b T / '   X 9 a s l l V J |   @ & ; 2 b b b T / ` ",
"X 9 a s s j B D  .  @ & ; 1 , x I ! `   X 9 a s s j k A }   @ & ; , , 1 x I ! ` ",
"X 9 a a a d g Z K   O & ; ; ; 1 x W _   X 9 a a a d g A K   O & ; ; ; ; , x W ` ",
"X 9 9 9 9 0 u n G   @ & & & & = : b !   X 9 9 9 9 0 u n F   @ & & & & & = , b ! ",
"X X X X X 5 8 z S   @ @ O @ @ $ = 2 T   X X X X X 5 8 i S   $ @ @ O @ @ $ * 2 E ",
"                                                                                ",
"S F H |   T ! _ ` ] ' ` ' `   S F H }  . .| | |   Y ! _ ` ' ' ' ' '   S F K [ | ",
"z n Z |   2 b E ! / / / ( '   i n A A J J K J |   2 b E ! / / / ( '   z m Z D | ",
"8 u Z |   = : x I T T T / `   8 u g B V V V J |   * : x I T T T / ]   8 u g D | ",
"5 u Z |   $ = 2 x b b T / ]   6 0 d j l l V J |   $ = 2 x b b T / `   6 0 g A | ",
"X u Z |   @ & ; , b b T ( `   o 9 a s l l V J |   @ & ; , b b T / `   X 0 g D ..",
"X u Z |   @ & ; 1 x b T / ]   X 9 a s h l V J |   @ & ; , x b T / ]   X 8 g D | ",
"X u Z |   @ & ; 1 1 x I ! `   X 9 a s s j B D |   @ & ; 1 1 x I ! `   X 0 g A | ",
"X u Z H   O & ; ; ; 1 x W `   X 9 a a a d n Z K   O & ; ; ; , x W `   X 0 g A K ",
"X u n F   O & & & & = : b !   X 9 9 9 9 0 u n G   O & & & & = 1 b !   X 0 u n F ",
"X 8 z S   @ @ O O + $ = 1 T   X X X X X 5 8 z S   @ @ O + + $ = , T   X 6 8 z S "
};
